# xmcd
#
# Track frame offsets: 
#        150
#        18810
#        39260
#        55795
#        70607
#        96455
#        112047
#        135965
#        157145
#        178687
#
# Disc length: 2570 seconds
#
# Revision: 0
# Processed by: cddbd v1.5.2PL0 Copyright (c) Steve Scherf et al.
# Submitted via: ExactAudioCopy v1.0b4
#
DISCID=7c0a080a
DTITLE=Frankie Spellman - Blues Without A Net
DYEAR=2001
DGENRE=Blues
TTITLE0=I Lied
TTITLE1=Tricked Into Love
TTITLE2=Holly Hell
TTITLE3=Killin' Time
TTITLE4=Slip Away
TTITLE5=Chinese Resturant
TTITLE6=Glad You're Gone
TTITLE7=The Wandering Eye
TTITLE8=Sweet Lovin' Woman
TTITLE9=Bad Vegetables
EXTD=
EXTT0=
EXTT1=
EXTT2=
EXTT3=
EXTT4=
EXTT5=
EXTT6=
EXTT7=
EXTT8=
EXTT9=
PLAYORDER=
